# xmcd
#
# Track frame offsets:
#	150
#	14925
#	30825
#	49650
#	69675
#	85500
#	104325
#	121575
#	137700
#	152475
#	168375
#	187200
#	207225
#	223050
#	241875
#	259125
#
# Disc length: 3670 seconds
#
# Revision: 3
# Processed by: cddbd v1.5.2PL0 Copyright (c) Steve Scherf et al.
# Submitted via: audiograbber 1.83.01
#
DISCID=dc0e5410
DTITLE=Party Tyme Karaoke - Girl Country 11 SYB1677
DYEAR=1900
DGENRE=Country
TTITLE0=Miranda Lambert - Mama's Broken Heart
TTITLE1=The Band Perry - Better Dig Two
TTITLE2=Carrie Underwood  - Blown Away
TTITLE3=Tau;pr Swoft - Begin Again
TTITLE4=Lady Antebellum - Downtown
TTITLE5=Carrie Underwood  - Two Black Cadilacs
TTITLE6=Kacey Musgraves - Merry Go "Round
TTITLE7=Little Big Town  - Tornado
TTITLE8=Vocals - vocals
TTITLE9=Vocals - vocals
TTITLE10=Vocals - vocals
TTITLE11=Vocals - Vocals
TTITLE12=Vocals - vocals
TTITLE13=Vocals - vocals
TTITLE14=Vocals - vocals
TTITLE15=Vocals - vocals
EXTD=Girl Songs - 
EXTT0=
EXTT1=
EXTT2=
EXTT3=
EXTT4=
EXTT5=
EXTT6=
EXTT7=
EXTT8=
EXTT9=
EXTT10=
EXTT11=
EXTT12=
EXTT13=
EXTT14=
EXTT15=
PLAYORDER=
